<?xml version="1.0" encoding="UTF-8"?>
<!DOCTYPE svg PUBLIC "-//W3C//DTD SVG 1.1//EN" "http://www.w3.org/Graphics/SVG/1.1/DTD/svg11.dtd">
<!-- Creator: CorelDRAW 2021.5 -->
<svg xmlns="http://www.w3.org/2000/svg" xml:space="preserve" width="56mm" height="17.157mm" version="1.1" style="shape-rendering:geometricPrecision; text-rendering:geometricPrecision; image-rendering:optimizeQuality; fill-rule:evenodd; clip-rule:evenodd"
viewBox="0 0 5600 1715.7"
 xmlns:xlink="http://www.w3.org/1999/xlink"
 xmlns:xodm="http://www.corel.com/coreldraw/odm/2003">
 <defs>
  <style type="text/css">
   <![CDATA[
    .str0 {stroke:black;stroke-width:75;stroke-miterlimit:22.9256}
    .fil0 {fill:none}
    .fil1 {fill:black;fill-rule:nonzero}
   ]]>
  </style>
 </defs>
 <g id="Слой_x0020_1">
  <metadata id="CorelCorpID_0Corel-Layer"/>
  <polyline class="fil0 str0" points="1197.53,1554.93 47.53,1554.93 47.53,54.93 5547.53,54.93 5547.53,1554.93 4397.53,1554.93 "/>
  <path class="fil1" d="M698.35 709.54l-88.05 0 0 -176.11 286.74 0 0 -129.82 -425.59 0 0 790.22 226.9 0c160.31,0 242.71,-79.02 242.71,-242.71 0,-143.37 -82.4,-241.58 -242.71,-241.58zm-10.16 352.21l-77.89 0 0 -222.39 77.89 0c67.74,0 109.51,36.12 109.51,111.76 0,76.76 -41.77,110.63 -109.51,110.63zm358.99 132.08l137.72 0 159.17 -364.63c23.71,-54.19 45.16,-117.41 65.48,-171.59l3.39 3.38c-9.03,83.54 -14.68,212.24 -14.68,286.74l0 246.1 135.47 0 0 -790.22 -138.86 0 -168.2 386.08c-21.45,47.41 -40.64,101.6 -57.57,145.62l-3.39 -2.25c10.16,-85.8 16.93,-205.46 16.93,-270.94l0 -258.51 -135.46 0 0 790.22zm854.57 -790.22l-219 0 0 790.22 138.85 0 0 -265.29 80.15 0c159.17,0 252.87,-95.95 252.87,-261.9 0,-165.95 -93.7,-263.03 -252.87,-263.03zm-1.13 393.98l-79.02 0 0 -261.9 79.02 0c74.51,0 111.76,44.02 111.76,130.95 0,86.92 -37.25,130.95 -111.76,130.95zm698.78 396.24l158.05 0 -246.1 -445.91 212.23 -344.31 -160.3 0 -132.08 231.42 -46.29 92.57 0 -323.99 -136.59 0 0 790.22 136.59 0 0 -246.1 48.54 -75.63 165.95 321.73zm224.65 0l137.72 0 159.17 -364.63c23.71,-54.19 45.16,-117.41 65.48,-171.59l3.39 3.38c-9.03,83.54 -14.68,212.24 -14.68,286.74l0 246.1 135.47 0 0 -790.22 -138.86 0 -168.2 386.08c-21.45,47.41 -40.64,101.6 -57.57,145.62l-3.39 -2.25c10.16,-85.8 16.93,-205.46 16.93,-270.94l0 -258.51 -135.46 0 0 790.22zm1273.39 -790.22l-460.59 0 0 132.08 159.18 0 0 658.14 142.24 0 0 -658.14 159.17 0 0 -132.08zm383.82 0l-102.73 353.34 -112.89 -353.34 -146.75 0 197.55 567.83c-25.96,88.05 -50.8,110.63 -111.76,110.63l-33.86 0 0 124.18 29.35 0c132.08,0 190.78,-37.26 239.32,-193.04l187.4 -609.6 -145.63 0zm642.34 0l-460.59 0 0 132.08 159.18 0 0 658.14 142.24 0 0 -658.14 159.17 0 0 -132.08z"/>
  <path class="fil1" d="M1479.65 1476.9c-29.64,0 -45.44,17.28 -46.43,46.42l29.39 0c0.49,-12.34 6.17,-18.52 16.54,-18.52 10.62,0 16.55,6.92 16.55,20.5l0 9.88 -36.06 0 0 19.26 36.06 0 0 10.62c0,13.82 -5.93,20.74 -16.55,20.74 -11.11,0 -16.54,-6.42 -17.28,-18.77l-29.39 0c0.74,29.39 18.27,46.67 47.17,46.67 28.39,0 45.43,-18.02 45.43,-48.64l0 -39.76c0,-30.37 -17.04,-48.4 -45.43,-48.4zm181.32 3.21l-85.68 0 0 27.66 28.39 0 0 102.97 29.14 0 0 -102.97 28.15 0 0 -27.66zm61.81 130.63l29.64 0 16.3 -35.56c5.92,-12.59 15.8,-43.95 17.03,-49.39l0.75 0.25c-0.99,14.57 -1.24,34.08 -1.24,46.18l0 38.52 27.9 0 0 -130.63 -29.38 0 -16.3 37.78c-5.18,13.83 -14.32,39.51 -16.54,46.67l-0.5 -0.24c0,-16.55 0.25,-29.14 0.25,-40.26l0 -43.95 -27.91 0 0 130.63zm229.24 0l33.09 0 -43.95 -75.32 37.78 -55.31 -34.08 0 -17.28 29.38c-3.95,6.92 -8.4,14.82 -12.84,22.97l0 -52.35 -28.9 0 0 130.63 28.9 0 0 -44.7 7.16 -7.65 30.12 52.35zm146.52 -41.24c-2.23,11.36 -6.67,16.3 -18.77,16.3 -10.87,0 -17.04,-6.92 -17.04,-22.47l0 -7.66 63.46 0 0 -29.14c0,-31.36 -17.53,-49.63 -46.67,-49.63 -28.64,0 -45.93,18.27 -45.93,49.63l0 36.8c0,31.61 17.29,50.37 45.69,50.37 28.64,0 46.17,-16.29 48.64,-44.2l-29.38 0zm-18.77 -65.44c11.36,0 17.53,6.92 17.53,22.23l0 8.64 -34.57 0 0 -8.64c0,-15.31 6.17,-22.23 17.04,-22.23zm189.72 -23.95l-85.68 0 0 27.66 28.39 0 0 102.97 29.14 0 0 -102.97 28.15 0 0 -27.66zm127.99 130.63l33.09 0 -43.95 -75.32 37.78 -55.31 -34.08 0 -17.28 29.38c-3.95,6.92 -8.4,14.82 -12.84,22.97l0 -52.35 -28.9 0 0 130.63 28.9 0 0 -44.7 7.16 -7.65 30.12 52.35zm91.2 0l29.64 0 16.3 -35.56c5.92,-12.59 15.8,-43.95 17.03,-49.39l0.75 0.25c-0.99,14.57 -1.24,34.08 -1.24,46.18l0 38.52 27.9 0 0 -130.63 -29.38 0 -16.3 37.78c-5.18,13.83 -14.32,39.51 -16.54,46.67l-0.5 -0.24c0,-16.55 0.25,-29.14 0.25,-40.26l0 -43.95 -27.91 0 0 130.63zm520.88 -130.63l-21.73 75.32 -24.2 -75.32 -30.38 0 42.23 117.3 -4.2 14.81c-3.21,10.87 -6.42,17.04 -15.55,17.04l-9.14 0 0 28.15 15.06 0c20.74,0 30.87,-17.28 37.29,-40l40.5 -137.3 -29.88 0zm176.88 0l-87.17 0 0 130.63 29.14 0 0 -103.71 28.9 0 0 103.71 29.13 0 0 -130.63zm115.65 -3.21c-27.65,0 -44.69,16.05 -45.93,42.47l29.14 0c1.24,-10.12 8.15,-14.32 16.3,-14.32 10.86,0 14.81,7.65 14.81,20.99l0 6.42 -15.31 0c-28.64,0 -48.64,13.33 -48.64,40.99 0,23.96 15.31,40.75 39.26,40.75 14.82,0 23.95,-6.92 28.89,-15.81l1.73 12.35 23.46 0 0 -84.7c0,-31.86 -14.07,-49.14 -43.71,-49.14zm14.32 93.84c0,11.11 -6.91,18.02 -17.77,18.02 -11.12,0 -16.55,-6.42 -16.55,-15.31 0,-10.62 7.16,-16.3 19.51,-16.3l14.81 0 0 13.59zm168 40l33.09 0 -43.95 -75.32 37.78 -55.31 -34.08 0 -17.28 29.38c-3.95,6.92 -8.4,14.82 -12.84,22.97l0 -52.35 -28.9 0 0 130.63 28.9 0 0 -44.7 7.16 -7.65 30.12 52.35zm128.74 3.21c29.63,0 47.41,-18.27 47.41,-50.87l0 -35.31c0,-32.6 -17.78,-50.87 -47.41,-50.87 -29.39,0 -47.17,18.27 -47.17,50.87l0 35.31c0,32.6 17.78,50.87 47.17,50.87zm0 -28.4c-11.12,0 -17.54,-6.91 -17.54,-22.47l0 -35.31c0,-15.81 6.42,-22.47 17.54,-22.47 11.36,0 17.78,6.66 17.78,22.47l0 35.31c0,15.56 -6.42,22.47 -17.78,22.47zm186.76 -43.95c8.64,-5.93 13.34,-15.07 13.34,-24.45 0,-23.46 -14.33,-37.04 -41.24,-37.04l-41.74 0 0 130.63 42.73 0c31.85,0 46.91,-14.57 46.91,-38.03 0,-13.09 -5.43,-25.43 -20,-31.11zm-41.73 -38.03l11.61 0c9.63,0 15.06,5.68 15.06,14.32 0,9.63 -5.43,14.57 -14.82,14.57l-11.85 0 0 -28.89zm16.3 83.22l-16.3 0 0 -30.62 16.3 0c11.6,0 16.79,4.94 16.79,15.31 0,10.12 -5.19,15.31 -16.79,15.31zm175.15 23.95l33.09 0 -43.95 -75.32 37.78 -55.31 -34.08 0 -17.28 29.38c-3.95,6.92 -8.4,14.82 -12.84,22.97l0 -52.35 -28.9 0 0 130.63 28.9 0 0 -44.7 7.16 -7.65 30.12 52.35zm129.23 -133.84c-27.65,0 -44.69,16.05 -45.93,42.47l29.14 0c1.24,-10.12 8.15,-14.32 16.3,-14.32 10.86,0 14.81,7.65 14.81,20.99l0 6.42 -15.31 0c-28.64,0 -48.64,13.33 -48.64,40.99 0,23.96 15.31,40.75 39.26,40.75 14.82,0 23.95,-6.92 28.89,-15.81l1.73 12.35 23.46 0 0 -84.7c0,-31.86 -14.07,-49.14 -43.71,-49.14zm14.32 93.84c0,11.11 -6.91,18.02 -17.77,18.02 -11.12,0 -16.55,-6.42 -16.55,-15.31 0,-10.62 7.16,-16.3 19.51,-16.3l14.81 0 0 13.59zm-1345.54 -158.29l0 222 29.63 0 0 -222 -29.63 0z"/>
 </g>
</svg>
